<svg width="263" height="237" viewBox="0 0 263 237" fill="none" xmlns="http://www.w3.org/2000/svg">
<g clip-path="url(#clip0_812_9387)">
<rect width="262" height="237" transform="translate(0.25)" fill="white"/>
<path d="M163.035 137.721H67.0675C63.8131 137.718 60.693 136.419 58.3918 134.11C56.0906 131.801 54.7962 128.67 54.7925 125.405V12.3165C54.7962 9.05112 56.0906 5.9205 58.3918 3.6115C60.693 1.3025 63.8131 0.00368861 67.0675 0H156.35L175.31 15.1639V125.405C175.306 128.67 174.012 131.801 171.711 134.11C169.41 136.419 166.29 137.718 163.035 137.721Z" fill="#E6E6E6"/>
<path d="M67.0674 3.54567C64.7499 3.54829 62.528 4.4732 60.8893 6.11749C59.2506 7.76178 58.3288 9.99116 58.3262 12.3165V125.405C58.3288 127.73 59.2506 129.959 60.8893 131.604C62.528 133.248 64.7499 134.173 67.0674 134.176H163.035C165.353 134.173 167.574 133.248 169.213 131.604C170.852 129.959 171.774 127.73 171.776 125.405V16.872L155.114 3.54567H67.0674Z" fill="white"/>
<path d="M144.369 36.4287H100.677C100.408 36.4287 100.142 36.3756 99.8944 36.2726C99.6464 36.1695 99.4211 36.0184 99.2313 35.8279C99.0415 35.6375 98.8909 35.4114 98.7882 35.1625C98.6854 34.9137 98.6326 34.647 98.6326 34.3776C98.6326 34.1083 98.6854 33.8416 98.7882 33.5928C98.8909 33.3439 99.0415 33.1178 99.2313 32.9273C99.4211 32.7369 99.6464 32.5858 99.8944 32.4827C100.142 32.3797 100.408 32.3266 100.677 32.3266H144.369C144.638 32.3266 144.904 32.3797 145.152 32.4827C145.4 32.5858 145.625 32.7369 145.815 32.9273C146.005 33.1178 146.155 33.3439 146.258 33.5928C146.361 33.8416 146.414 34.1083 146.414 34.3776C146.414 34.647 146.361 34.9137 146.258 35.1625C146.155 35.4114 146.005 35.6375 145.815 35.8279C145.625 36.0184 145.4 36.1695 145.152 36.2726C144.904 36.3756 144.638 36.4287 144.369 36.4287Z" fill="#CCCCCC"/>
<path d="M152.801 43.3509H100.677C100.135 43.3509 99.6146 43.1348 99.2313 42.7502C98.8479 42.3655 98.6326 41.8439 98.6326 41.2999C98.6326 40.7559 98.8479 40.2342 99.2313 39.8496C99.6146 39.4649 100.135 39.2489 100.677 39.2489H152.801C153.343 39.2489 153.863 39.4649 154.247 39.8496C154.63 40.2342 154.845 40.7559 154.845 41.2999C154.845 41.8439 154.63 42.3655 154.247 42.7502C153.863 43.1348 153.343 43.3509 152.801 43.3509Z" fill="#CCCCCC"/>
<path d="M144.369 67.4505H100.677C100.135 67.4505 99.6146 67.2345 99.2313 66.8498C98.8479 66.4652 98.6326 65.9435 98.6326 65.3995C98.6326 64.8555 98.8479 64.3339 99.2313 63.9492C99.6146 63.5646 100.135 63.3485 100.677 63.3485H144.369C144.912 63.3485 145.431 63.5646 145.815 63.9492C146.198 64.3339 146.414 64.8555 146.414 65.3995C146.414 65.9435 146.198 66.4652 145.815 66.8498C145.431 67.2345 144.912 67.4505 144.369 67.4505Z" fill="#CCCCCC"/>
<path d="M152.801 74.3728H100.677C100.135 74.3728 99.6146 74.1567 99.2313 73.7721C98.8479 73.3874 98.6326 72.8657 98.6326 72.3218C98.6326 71.7778 98.8479 71.2561 99.2313 70.8715C99.6146 70.4868 100.135 70.2707 100.677 70.2707H152.801C153.343 70.2707 153.863 70.4868 154.247 70.8715C154.63 71.2561 154.845 71.7778 154.845 72.3218C154.845 72.8657 154.63 73.3874 154.247 73.7721C153.863 74.1567 153.343 74.3728 152.801 74.3728Z" fill="#CCCCCC"/>
<path d="M144.369 98.4724H100.677C100.135 98.4724 99.6146 98.2563 99.2313 97.8717C98.8479 97.487 98.6326 96.9654 98.6326 96.4214C98.6326 95.8774 98.8479 95.3557 99.2313 94.9711C99.6146 94.5864 100.135 94.3703 100.677 94.3703H144.369C144.912 94.3703 145.431 94.5864 145.815 94.9711C146.198 95.3557 146.414 95.8774 146.414 96.4214C146.414 96.9654 146.198 97.487 145.815 97.8717C145.431 98.2563 144.912 98.4724 144.369 98.4724Z" fill="#CCCCCC"/>
<path d="M152.801 105.395H100.677C100.135 105.395 99.6146 105.179 99.2313 104.794C98.8479 104.409 98.6326 103.888 98.6326 103.344C98.6326 102.8 98.8479 102.278 99.2313 101.893C99.6146 101.509 100.135 101.293 100.677 101.293H152.801C153.343 101.293 153.863 101.509 154.247 101.893C154.63 102.278 154.845 102.8 154.845 103.344C154.845 103.888 154.63 104.409 154.247 104.794C153.863 105.179 153.343 105.395 152.801 105.395Z" fill="#CCCCCC"/>
<path d="M82.4819 45.088C86.4721 45.088 89.7067 41.8424 89.7067 37.8388C89.7067 33.8351 86.4721 30.5895 82.4819 30.5895C78.4918 30.5895 75.2571 33.8351 75.2571 37.8388C75.2571 41.8424 78.4918 45.088 82.4819 45.088Z" fill="#0BC5EA"/>
<path d="M81.766 40.6041C81.6034 40.6044 81.4452 40.5517 81.3152 40.4538L81.3071 40.4477L79.6092 39.1445C79.4506 39.0222 79.3468 38.8418 79.3207 38.6429C79.2946 38.4439 79.3483 38.2427 79.47 38.0834C79.5917 37.9241 79.7714 37.8199 79.9697 37.7935C80.1679 37.7671 80.3685 37.8208 80.5274 37.9428L81.6271 38.789L84.226 35.3871C84.2862 35.3082 84.3614 35.242 84.4471 35.1923C84.5329 35.1425 84.6276 35.1102 84.7258 35.0972C84.824 35.0842 84.9238 35.0907 85.0194 35.1164C85.1151 35.1421 85.2048 35.1864 85.2834 35.2469L85.2836 35.2471L85.2675 35.2695L85.2841 35.2471C85.4427 35.3694 85.5464 35.5498 85.5726 35.7487C85.5987 35.9477 85.5452 36.149 85.4236 36.3083L82.3668 40.308C82.2961 40.4001 82.2052 40.4747 82.1011 40.5259C81.997 40.5771 81.8826 40.6036 81.7666 40.6032L81.766 40.6041Z" fill="white"/>
<path d="M83.2258 76.1099C87.216 76.1099 90.4506 72.8643 90.4506 68.8606C90.4506 64.857 87.216 61.6114 83.2258 61.6114C79.2357 61.6114 76.0011 64.857 76.0011 68.8606C76.0011 72.8643 79.2357 76.1099 83.2258 76.1099Z" fill="#CCCCCC"/>
<path d="M82.4819 107.132C86.4721 107.132 89.7067 103.886 89.7067 99.8825C89.7067 95.8788 86.4721 92.6332 82.4819 92.6332C78.4918 92.6332 75.2571 95.8788 75.2571 99.8825C75.2571 103.886 78.4918 107.132 82.4819 107.132Z" fill="#CCCCCC"/>
<path d="M174.941 15.6519H160.089C159.004 15.6519 157.965 15.2197 157.198 14.4504C156.431 13.6811 156 12.6378 156 11.5498V0.542944C156 0.494755 156.014 0.447537 156.04 0.406713C156.065 0.36589 156.102 0.333109 156.145 0.312131C156.188 0.291152 156.236 0.282824 156.284 0.288103C156.332 0.293383 156.377 0.312055 156.415 0.341978L175.1 15.1945C175.141 15.2276 175.172 15.2728 175.186 15.3239C175.201 15.375 175.2 15.4295 175.182 15.4798C175.165 15.5301 175.132 15.5736 175.089 15.6045C175.046 15.6353 174.994 15.6519 174.941 15.6519Z" fill="#E6E6E6"/>
<path d="M74.401 158.91L17.6216 170.919C15.9808 171.264 14.2705 170.942 12.866 170.023C11.4615 169.105 10.4775 167.665 10.1299 166.019L0.386679 119.638C0.0427439 117.992 0.363724 116.276 1.2792 114.866C2.19468 113.457 3.62988 112.47 5.26995 112.121L62.0493 100.112C63.6901 99.7674 65.4004 100.089 66.8049 101.008C68.2094 101.927 69.1934 103.367 69.541 105.012L79.2842 151.393C79.6282 153.04 79.3072 154.756 78.3917 156.165C77.4762 157.574 76.041 158.561 74.401 158.91Z" fill="white"/>
<path d="M74.401 158.91L17.6216 170.919C15.9808 171.264 14.2705 170.942 12.866 170.023C11.4615 169.105 10.4775 167.665 10.1299 166.019L0.386679 119.638C0.0427439 117.992 0.363724 116.276 1.2792 114.866C2.19468 113.457 3.62988 112.47 5.26995 112.121L62.0493 100.112C63.6901 99.7674 65.4004 100.089 66.8049 101.008C68.2094 101.927 69.1934 103.367 69.541 105.012L79.2842 151.393C79.6282 153.04 79.3072 154.756 78.3917 156.165C77.4762 157.574 76.041 158.561 74.401 158.91ZM5.42339 112.852C3.97628 113.159 2.70992 114.03 1.90215 115.274C1.09438 116.517 0.811153 118.032 1.11461 119.484L10.8579 165.865C11.1646 167.317 12.0328 168.588 13.2721 169.398C14.5113 170.209 16.0204 170.493 17.4682 170.189L74.2475 158.18C75.6946 157.872 76.961 157.001 77.7688 155.757C78.5765 154.514 78.8598 153 78.5563 151.547L68.8131 105.166C68.5063 103.714 67.6381 102.444 66.3988 101.633C65.1596 100.823 63.6505 100.538 62.2027 100.843L5.42339 112.852Z" fill="#3F3D56"/>
<path d="M58.5214 115.406L29.8657 121.466C29.6149 121.525 29.3514 121.485 29.1284 121.356C28.9054 121.227 28.7396 121.018 28.6645 120.771C28.6301 120.642 28.6223 120.507 28.6414 120.375C28.6606 120.244 28.7063 120.117 28.7759 120.003C28.8455 119.89 28.9374 119.791 29.046 119.714C29.1547 119.638 29.2778 119.584 29.4079 119.556L58.5777 113.387C59.7166 114.031 59.3567 115.229 58.5211 115.406L58.5214 115.406Z" fill="#CCCCCC"/>
<path d="M59.5809 120.449L30.9251 126.51C30.6744 126.568 30.4109 126.529 30.1879 126.4C29.9649 126.271 29.7991 126.061 29.7239 125.814C29.6896 125.685 29.6817 125.551 29.7009 125.419C29.7201 125.287 29.7658 125.16 29.8354 125.047C29.9049 124.933 29.9969 124.835 30.1055 124.758C30.2142 124.681 30.3373 124.627 30.4674 124.6L59.6372 118.43C60.7761 119.074 60.4161 120.272 59.5806 120.449L59.5809 120.449Z" fill="#CCCCCC"/>
<path d="M25.3337 130.691L16.5882 132.541C16.3026 132.601 16.0049 132.545 15.7604 132.385C15.5159 132.225 15.3447 131.975 15.2842 131.688L13.1088 121.333C13.0489 121.046 13.1048 120.748 13.2641 120.502C13.4235 120.257 13.6733 120.085 13.9588 120.024L22.7043 118.175C22.9899 118.115 23.2876 118.171 23.532 118.331C23.7764 118.491 23.9477 118.741 24.0083 119.028L26.1836 129.383C26.2435 129.67 26.1877 129.968 26.0283 130.214C25.869 130.459 25.6191 130.631 25.3337 130.691V130.691Z" fill="#CCCCCC"/>
<path d="M61.6669 130.793L17.9329 140.043C17.6821 140.101 17.4186 140.062 17.1956 139.933C16.9727 139.804 16.8068 139.594 16.7317 139.347C16.6973 139.219 16.6895 139.084 16.7086 138.952C16.7278 138.82 16.7736 138.693 16.8431 138.58C16.9127 138.466 17.0046 138.368 17.1133 138.291C17.2219 138.214 17.345 138.16 17.4751 138.133L61.7235 128.774C62.8624 129.419 62.5024 130.616 61.6669 130.793Z" fill="#CCCCCC"/>
<path d="M62.7267 135.838L18.9927 145.088C18.7419 145.146 18.4784 145.107 18.2554 144.978C18.0325 144.849 17.8666 144.639 17.7915 144.392C17.7571 144.263 17.7493 144.129 17.7684 143.997C17.7876 143.865 17.8334 143.738 17.9029 143.625C17.9725 143.511 18.0644 143.413 18.1731 143.336C18.2817 143.259 18.4048 143.205 18.5349 143.178L62.7833 133.819C63.9222 134.463 63.5622 135.661 62.7267 135.838Z" fill="#CCCCCC"/>
<path d="M63.7858 140.88L20.0518 150.129C19.801 150.188 19.5375 150.148 19.3145 150.019C19.0915 149.89 18.9257 149.681 18.8506 149.434C18.8162 149.305 18.8084 149.171 18.8275 149.039C18.8467 148.907 18.8925 148.78 18.962 148.666C19.0316 148.553 19.1235 148.454 19.2322 148.378C19.3408 148.301 19.4639 148.247 19.594 148.219L63.8424 138.861C64.9813 139.505 64.6213 140.703 63.7858 140.88Z" fill="#CCCCCC"/>
<path d="M64.8455 145.924L21.1115 155.174C20.8607 155.232 20.5972 155.193 20.3742 155.064C20.1513 154.935 19.9854 154.726 19.9103 154.478C19.8759 154.35 19.8681 154.215 19.8873 154.083C19.9064 153.951 19.9522 153.824 20.0217 153.711C20.0913 153.597 20.1832 153.499 20.2919 153.422C20.4005 153.345 20.5236 153.291 20.6537 153.264L64.9021 143.906C66.041 144.55 65.6811 145.748 64.8455 145.924Z" fill="#CCCCCC"/>
<path d="M65.9046 150.966L22.1707 160.216C21.9199 160.274 21.6564 160.235 21.4334 160.106C21.2104 159.977 21.0446 159.768 20.9695 159.521C20.9351 159.392 20.9273 159.257 20.9464 159.125C20.9656 158.993 21.0113 158.866 21.0809 158.753C21.1505 158.639 21.2424 158.541 21.351 158.464C21.4597 158.387 21.5828 158.334 21.7129 158.306L65.9613 148.948C67.1002 149.592 66.7402 150.79 65.9046 150.966Z" fill="#CCCCCC"/>
<path d="M73.6247 127.876C73.5253 128.057 73.4403 128.245 73.3705 128.439L55.4665 132.897L52.3518 129.664L46.8746 133.743L51.8341 140.004C52.2348 140.51 52.7881 140.872 53.4112 141.035C54.0342 141.199 54.6932 141.155 55.2893 140.91L74.7169 132.945C75.3555 133.417 76.122 133.682 76.9146 133.706C77.7071 133.73 78.4881 133.511 79.1537 133.078C79.8193 132.646 80.3379 132.021 80.6406 131.285C80.9432 130.55 81.0156 129.739 80.848 128.962C80.6805 128.184 80.2809 127.476 79.7026 126.932C79.1242 126.388 78.3944 126.033 77.6103 125.915C76.8261 125.797 76.0248 125.922 75.3128 126.272C74.6009 126.622 74.012 127.182 73.6247 127.876L73.6247 127.876Z" fill="#A0616A"/>
<path d="M12.5116 167.547C13.0698 167.374 13.5834 167.081 14.0162 166.687C14.449 166.293 14.7906 165.809 15.0168 165.269C15.243 164.728 15.3483 164.145 15.3254 163.559C15.3025 162.973 15.1518 162.4 14.8841 161.879L27.2053 127.517L18.6486 125.995L9.22796 160.25C8.38551 160.76 7.75853 161.561 7.4658 162.503C7.17308 163.446 7.23495 164.463 7.63971 165.362C8.04446 166.262 8.76397 166.981 9.66189 167.383C10.5598 167.786 11.5738 167.844 12.5116 167.547Z" fill="#A0616A"/>
<path d="M25.6405 133.616L17.1921 130.363C16.9518 130.27 16.7341 130.127 16.554 129.942C16.3738 129.758 16.2355 129.536 16.1483 129.293C16.0611 129.05 16.0271 128.791 16.0488 128.534C16.0704 128.276 16.147 128.026 16.2735 127.801L20.7055 119.917C21.1846 118.685 22.1306 117.695 23.3363 117.163C24.5419 116.63 25.9088 116.599 27.1372 117.076C28.3656 117.554 29.3553 118.5 29.8893 119.708C30.4233 120.917 30.4581 122.288 29.9861 123.522L28.0312 132.329C27.9751 132.581 27.8656 132.818 27.71 133.024C27.5544 133.23 27.3564 133.4 27.1295 133.522C26.9026 133.644 26.6522 133.716 26.3952 133.732C26.1383 133.748 25.8808 133.709 25.6405 133.616V133.616Z" fill="#0BC5EA"/>
<path d="M44.7094 232.061L49.2698 232.06L51.4391 214.411L44.7087 214.411L44.7094 232.061Z" fill="#A0616A"/>
<path d="M43.5461 230.567L52.5268 230.566H52.5272C53.2788 230.566 54.023 230.715 54.7174 231.004C55.4118 231.292 56.0427 231.715 56.5742 232.248C57.1056 232.782 57.5272 233.415 57.8148 234.111C58.1025 234.808 58.2505 235.555 58.2505 236.309V236.496L43.5464 236.496L43.5461 230.567Z" fill="#2F2E41"/>
<path d="M19.0437 232.061L23.604 232.06L25.7733 214.411L19.0429 214.411L19.0437 232.061Z" fill="#A0616A"/>
<path d="M17.8804 230.567L26.8611 230.566H26.8614C27.613 230.566 28.3573 230.715 29.0516 231.004C29.746 231.292 30.377 231.715 30.9084 232.248C31.4399 232.782 31.8614 233.415 32.1491 234.111C32.4367 234.808 32.5847 235.555 32.5847 236.309V236.496L17.8806 236.496L17.8804 230.567Z" fill="#2F2E41"/>
<path d="M23.8243 224.957H18.0534C17.8269 224.957 17.6027 224.911 17.3945 224.821C17.1863 224.732 16.9983 224.601 16.842 224.437C16.6857 224.272 16.5643 224.077 16.4851 223.864C16.406 223.652 16.3707 223.425 16.3814 223.198L19.1226 164.104L19.2953 164.099L47.1628 163.37L52.616 222.498C52.637 222.72 52.6138 222.943 52.5479 223.156C52.482 223.368 52.3746 223.566 52.2319 223.736C52.0893 223.907 51.9143 224.047 51.7171 224.149C51.5199 224.251 51.3044 224.313 51.0832 224.331L44.6012 224.851C44.194 224.883 43.789 224.766 43.4624 224.519C43.1358 224.273 42.9102 223.916 42.828 223.514L34.5367 181.423C34.5141 181.295 34.4465 181.179 34.3463 181.097C34.246 181.015 34.1197 180.972 33.9903 180.975H33.988C33.8582 180.972 33.7317 181.016 33.6315 181.099C33.5314 181.182 33.4643 181.299 33.4426 181.427L25.4667 223.602C25.3911 223.983 25.1862 224.327 24.8868 224.574C24.5874 224.821 24.212 224.956 23.8243 224.957Z" fill="#2F2E41"/>
<path d="M34.3955 111.399C39.4411 111.399 43.5314 107.295 43.5314 102.233C43.5314 97.1698 39.4411 93.0656 34.3955 93.0656C29.3499 93.0656 25.2596 97.1698 25.2596 102.233C25.2596 107.295 29.3499 111.399 34.3955 111.399Z" fill="#A0616A"/>
<path d="M31.3321 171.029C26.9778 171.029 22.5053 169.88 18.7976 166.485C18.6003 166.305 18.4479 166.082 18.353 165.832C18.258 165.582 18.223 165.314 18.251 165.048C18.6478 161.47 20.5729 142.997 19.4887 130.657C19.2772 128.353 19.6024 126.03 20.4387 123.873C21.275 121.715 22.5996 119.783 24.3078 118.227C25.9861 116.675 28.0009 115.536 30.1933 114.899C32.3856 114.262 34.6955 114.145 36.9406 114.557H36.9407C37.0545 114.577 37.1682 114.599 37.2821 114.621C44.5963 116.041 49.6783 122.833 49.1032 130.42C48.2641 141.49 47.5119 156.463 48.693 164.931C48.742 165.278 48.6817 165.631 48.5206 165.941C48.3595 166.252 48.1057 166.504 47.7948 166.662C45.1074 168.024 38.3743 171.029 31.3321 171.029Z" fill="#0BC5EA"/>
<path d="M43.2534 134.276C43.0391 134.133 42.858 133.945 42.7226 133.725C42.5872 133.505 42.5006 133.259 42.4688 133.003L41.3557 124.049C41.0024 122.776 41.1667 121.414 41.8126 120.262C42.4585 119.11 43.5333 118.262 44.8013 117.904C46.0693 117.545 47.4271 117.707 48.577 118.351C49.7269 118.996 50.575 120.072 50.9354 121.344L54.6016 129.615C54.7063 129.851 54.7589 130.107 54.7561 130.365C54.7533 130.623 54.695 130.878 54.5852 131.112C54.4754 131.346 54.3167 131.553 54.1199 131.719C53.9232 131.886 53.6929 132.008 53.4449 132.077L44.7269 134.511C44.4789 134.581 44.2188 134.596 43.9645 134.555C43.7102 134.514 43.4677 134.419 43.2534 134.276Z" fill="#0BC5EA"/>
<path d="M31.2062 111.27C30.3415 111.286 29.4822 111.13 28.6779 110.811C28.324 110.674 27.9566 110.562 27.6034 110.425C24.4839 109.215 22.4289 105.882 22.3553 102.527C22.2817 99.1722 24.0132 95.9161 26.5842 93.7702C29.1553 91.6243 32.4855 90.5226 35.8202 90.2678C39.4121 89.9934 43.4568 90.9074 45.4639 93.9089C45.9982 94.7079 46.3718 95.6772 46.0552 96.6419C45.9604 96.933 45.791 97.194 45.5641 97.3988C44.6678 98.199 43.7741 97.5973 42.8604 97.5441C41.6044 97.4711 40.4763 98.4911 40.0709 99.6861C39.6654 100.881 39.8439 102.197 40.1713 103.416C40.4207 104.149 40.5779 104.911 40.6393 105.683C40.6657 106.071 40.5931 106.458 40.4284 106.81C40.2636 107.161 40.0122 107.464 39.6979 107.691C38.9131 108.167 37.8824 107.891 37.0971 107.416C36.3118 106.941 35.6333 106.28 34.785 105.93C33.9368 105.58 32.7972 105.658 32.3035 106.433C32.1466 106.716 32.0404 107.023 31.9897 107.342C31.5471 109.366 31.6488 109.247 31.2062 111.27V111.27Z" fill="#2F2E41"/>
<path d="M71.5443 237H0.870381C0.771729 237 0.677117 236.961 0.60736 236.891C0.537602 236.821 0.498413 236.726 0.498413 236.627C0.498413 236.528 0.537602 236.433 0.60736 236.363C0.677117 236.293 0.771729 236.254 0.870381 236.254H71.5443C71.6429 236.254 71.7375 236.293 71.8073 236.363C71.877 236.433 71.9162 236.528 71.9162 236.627C71.9162 236.726 71.877 236.821 71.8073 236.891C71.7375 236.961 71.6429 237 71.5443 237Z" fill="#CCCCCC"/>
<path d="M252.449 159.977L201.84 188.46C200.377 189.282 198.648 189.487 197.035 189.032C195.421 188.576 194.053 187.497 193.231 186.031L170.121 144.69C169.302 143.222 169.097 141.488 169.551 139.869C170.005 138.249 171.081 136.877 172.542 136.052L223.151 107.569C224.614 106.747 226.342 106.542 227.956 106.997C229.57 107.453 230.938 108.532 231.76 109.998L254.87 151.339C255.689 152.807 255.893 154.541 255.439 156.16C254.986 157.78 253.91 159.152 252.449 159.977Z" fill="white"/>
<path d="M252.449 159.977L201.84 188.46C200.377 189.282 198.648 189.487 197.035 189.032C195.421 188.576 194.053 187.497 193.231 186.031L170.121 144.69C169.302 143.222 169.097 141.488 169.551 139.869C170.005 138.249 171.081 136.877 172.542 136.052L223.151 107.569C224.614 106.747 226.342 106.542 227.956 106.997C229.57 107.453 230.938 108.532 231.76 109.998L254.87 151.339C255.689 152.807 255.893 154.541 255.439 156.16C254.986 157.78 253.91 159.152 252.449 159.977ZM172.906 136.703C171.617 137.431 170.668 138.642 170.267 140.071C169.867 141.5 170.047 143.03 170.769 144.325L193.88 185.666C194.605 186.959 195.812 187.912 197.236 188.313C198.66 188.715 200.185 188.534 201.476 187.809L252.085 159.326C253.374 158.598 254.323 157.387 254.724 155.958C255.124 154.529 254.944 152.999 254.221 151.704L231.111 110.363C230.386 109.07 229.179 108.117 227.755 107.716C226.331 107.314 224.806 107.495 223.515 108.22L172.906 136.703Z" fill="#3F3D56"/>
<path d="M224.339 123.221L198.797 137.596C198.575 137.727 198.312 137.768 198.061 137.712C197.81 137.656 197.589 137.506 197.444 137.293C197.373 137.18 197.325 137.054 197.304 136.922C197.283 136.791 197.289 136.656 197.321 136.527C197.354 136.397 197.412 136.276 197.493 136.17C197.574 136.064 197.676 135.976 197.791 135.911L223.791 121.277C225.07 121.551 225.083 122.802 224.339 123.221L224.339 123.221Z" fill="#CCCCCC"/>
<path d="M226.852 127.716L201.31 142.091C201.088 142.222 200.825 142.264 200.574 142.207C200.323 142.151 200.102 142.001 199.957 141.788C199.886 141.675 199.838 141.549 199.817 141.418C199.796 141.286 199.802 141.151 199.834 141.022C199.867 140.893 199.925 140.771 200.006 140.665C200.087 140.56 200.189 140.471 200.304 140.406L226.304 125.773C227.583 126.046 227.596 127.297 226.851 127.716L226.852 127.716Z" fill="#CCCCCC"/>
<path d="M197.219 147.759L189.424 152.146C189.17 152.289 188.869 152.325 188.588 152.245C188.307 152.166 188.069 151.978 187.926 151.723L182.766 142.493C182.624 142.237 182.588 141.936 182.667 141.654C182.746 141.372 182.933 141.133 183.188 140.989L190.983 136.602C191.237 136.459 191.538 136.424 191.819 136.503C192.1 136.582 192.338 136.77 192.481 137.025L197.641 146.255C197.783 146.511 197.819 146.812 197.74 147.094C197.661 147.376 197.474 147.615 197.219 147.759L197.219 147.759Z" fill="#CCCCCC"/>
<path d="M231.923 136.962L192.942 158.902C192.72 159.033 192.457 159.074 192.205 159.018C191.954 158.961 191.734 158.811 191.588 158.598C191.517 158.486 191.47 158.36 191.449 158.228C191.428 158.096 191.433 157.962 191.466 157.832C191.499 157.703 191.557 157.582 191.638 157.476C191.719 157.37 191.82 157.282 191.936 157.216L231.376 135.019C232.655 135.292 232.668 136.543 231.923 136.962Z" fill="#CCCCCC"/>
<path d="M234.437 141.459L195.455 163.398C195.234 163.529 194.97 163.571 194.719 163.514C194.468 163.458 194.247 163.308 194.102 163.095C194.031 162.982 193.983 162.856 193.962 162.725C193.941 162.593 193.947 162.458 193.98 162.329C194.012 162.2 194.071 162.078 194.152 161.972C194.232 161.866 194.334 161.778 194.45 161.713L233.89 139.515C235.168 139.789 235.182 141.04 234.437 141.459V141.459Z" fill="#CCCCCC"/>
<path d="M236.949 145.953L197.968 167.892C197.746 168.023 197.482 168.064 197.231 168.008C196.98 167.952 196.759 167.802 196.614 167.589C196.543 167.476 196.495 167.35 196.474 167.218C196.453 167.087 196.459 166.952 196.492 166.823C196.524 166.693 196.583 166.572 196.664 166.466C196.745 166.36 196.846 166.272 196.962 166.207L236.402 144.009C237.68 144.282 237.694 145.533 236.949 145.953Z" fill="#CCCCCC"/>
<path d="M239.462 150.449L200.481 172.388C200.259 172.519 199.996 172.561 199.745 172.504C199.494 172.448 199.273 172.298 199.128 172.085C199.057 171.972 199.009 171.846 198.988 171.715C198.967 171.583 198.973 171.448 199.005 171.319C199.038 171.19 199.096 171.068 199.177 170.962C199.258 170.857 199.36 170.768 199.475 170.703L238.915 148.505C240.194 148.779 240.207 150.03 239.462 150.449H239.462Z" fill="#CCCCCC"/>
<path d="M241.975 154.943L202.993 176.883C202.772 177.013 202.508 177.055 202.257 176.999C202.006 176.942 201.785 176.792 201.64 176.579C201.569 176.466 201.521 176.34 201.5 176.209C201.479 176.077 201.485 175.942 201.518 175.813C201.55 175.684 201.609 175.562 201.69 175.457C201.77 175.351 201.872 175.262 201.988 175.197L241.428 153C242.706 153.273 242.72 154.524 241.975 154.943V154.943Z" fill="#CCCCCC"/>
<path d="M235.174 171.784C235.386 171.314 235.493 170.804 235.488 170.288C235.482 169.772 235.363 169.264 235.141 168.799C234.918 168.334 234.596 167.924 234.198 167.597C233.801 167.27 233.336 167.035 232.838 166.908L231.778 154.414L226.68 158.45L228.468 169.695C228.311 170.549 228.471 171.432 228.918 172.175C229.366 172.918 230.07 173.471 230.896 173.729C231.723 173.986 232.615 173.93 233.403 173.572C234.192 173.214 234.822 172.578 235.174 171.784Z" fill="#FFB8B8"/>
<path d="M231.874 165.599L227.64 166.106C227.425 166.132 227.207 166.113 227 166.05C226.792 165.987 226.6 165.882 226.435 165.741C226.27 165.601 226.135 165.427 226.04 165.232C225.945 165.037 225.891 164.824 225.882 164.606L225.264 150.274L217.238 128.273C216.916 127.591 216.77 126.838 216.811 126.084C216.853 125.33 217.082 124.599 217.477 123.956C217.673 123.645 217.899 123.354 218.149 123.085C218.643 122.552 219.258 122.146 219.942 121.902C220.627 121.658 221.359 121.584 222.078 121.686C222.818 121.784 223.525 122.059 224.138 122.487C224.752 122.915 225.255 123.483 225.605 124.145L230.84 135.15C233.029 139.753 234.063 144.824 233.85 149.92L233.26 164.098C233.245 164.469 233.099 164.823 232.85 165.097C232.6 165.371 232.262 165.548 231.895 165.597L231.874 165.599Z" fill="#0BC5EA"/>
<path d="M246.911 227.544L242.986 229.273L234.471 214.902L240.265 212.351L246.911 227.544Z" fill="#FFB8B8"/>
<path d="M249.583 230.921L236.925 236.496L236.855 236.336C236.571 235.686 236.417 234.987 236.402 234.279C236.387 233.57 236.512 232.865 236.768 232.204C237.025 231.544 237.409 230.94 237.898 230.429C238.387 229.917 238.972 229.507 239.619 229.222L239.619 229.222L247.35 225.817L249.583 230.921Z" fill="#2F2E41"/>
<path d="M194.208 232.326H189.92L187.881 215.733L194.208 215.734L194.208 232.326Z" fill="#FFB8B8"/>
<path d="M195.301 236.496L181.477 236.496V236.32C181.477 235.611 181.616 234.909 181.887 234.254C182.157 233.599 182.553 233.004 183.053 232.503C183.553 232.001 184.146 231.604 184.799 231.332C185.452 231.061 186.151 230.921 186.858 230.921H186.858L195.301 230.922L195.301 236.496Z" fill="#2F2E41"/>
<path d="M235.948 226.654L212.065 173.177C212.022 173.076 211.949 172.992 211.856 172.935C211.763 172.878 211.655 172.852 211.547 172.86C211.438 172.868 211.335 172.909 211.251 172.978C211.167 173.048 211.106 173.141 211.077 173.247L196.526 224.899C196.43 225.261 196.208 225.576 195.901 225.788C195.594 226 195.222 226.096 194.851 226.057L186.903 225.259C186.494 225.216 186.117 225.014 185.854 224.697C185.59 224.38 185.46 223.972 185.491 223.56C188.018 192.014 192.003 162.24 203.941 142.749L204.004 142.645L222.061 146.198L246.168 223.222C246.287 223.619 246.246 224.047 246.055 224.414C245.864 224.781 245.537 225.059 245.144 225.187L237.875 227.532C237.502 227.653 237.098 227.63 236.742 227.468C236.385 227.305 236.102 227.015 235.948 226.654Z" fill="#2F2E41"/>
<path d="M212.732 115.355C217.475 115.355 221.321 111.497 221.321 106.737C221.321 101.977 217.475 98.119 212.732 98.119C207.988 98.119 204.143 101.977 204.143 106.737C204.143 111.497 207.988 115.355 212.732 115.355Z" fill="#FFB8B8"/>
<path d="M202.831 144.241L202.721 144.218L202.696 144.109C201.538 139.207 201.511 133.857 202.614 128.208C203.173 125.321 204.73 122.724 207.01 120.876C209.29 119.027 212.147 118.045 215.077 118.103C218.257 118.168 221.292 119.449 223.562 121.685C225.831 123.921 227.163 126.943 227.285 130.132C227.653 139.848 223.696 148.271 223.656 148.355L223.597 148.479L202.831 144.241Z" fill="#0BC5EA"/>
<path d="M179.806 160.636C180.315 160.561 180.801 160.375 181.23 160.09C181.659 159.806 182.021 159.431 182.289 158.991C182.558 158.552 182.728 158.058 182.786 157.546C182.844 157.033 182.79 156.514 182.627 156.025L192.519 148.364L186.377 146.25L177.924 153.849C177.124 154.178 176.471 154.791 176.091 155.571C175.711 156.352 175.629 157.245 175.861 158.081C176.093 158.918 176.622 159.64 177.35 160.111C178.077 160.582 178.951 160.769 179.806 160.636V160.636Z" fill="#FFB8B8"/>
<path d="M185.21 154.859C184.888 155.05 184.508 155.119 184.14 155.054C183.771 154.989 183.438 154.793 183.201 154.503L180.483 151.206C180.345 151.039 180.243 150.845 180.183 150.636C180.123 150.427 180.107 150.208 180.136 149.992C180.164 149.777 180.237 149.569 180.349 149.383C180.461 149.197 180.61 149.036 180.787 148.911L192.46 140.627L206.545 121.942C206.943 121.301 207.494 120.77 208.148 120.396C208.802 120.023 209.539 119.82 210.292 119.805C210.658 119.803 211.024 119.835 211.385 119.901C212.1 120.028 212.773 120.327 213.348 120.772C213.923 121.217 214.382 121.795 214.686 122.456C215.004 123.135 215.156 123.879 215.13 124.628C215.104 125.377 214.9 126.109 214.536 126.764L204.106 143.711L204.084 143.748L185.21 154.859Z" fill="#0BC5EA"/>
<path d="M214.268 106.202C213.635 105.157 212.238 104.862 211.025 104.981C209.812 105.101 208.633 105.528 207.414 105.519C204.03 105.493 201.418 101.355 202.841 98.2739C204.008 95.7475 206.922 94.6381 209.558 93.7674C215.084 91.9418 221.433 90.1877 226.448 93.1477C228.046 94.119 229.357 95.5007 230.245 97.1502C231.133 98.7997 231.566 100.657 231.499 102.531C231.386 104.86 230.497 107.253 231.249 109.46C232.117 112.006 234.867 113.372 237.467 114.033C242.024 115.191 246.828 115.005 251.414 116.044C255.999 117.083 260.698 119.841 261.934 124.392C262.745 127.381 261.898 130.599 260.495 133.359C259.064 136.174 257.075 138.667 254.65 140.685C252.225 142.702 249.415 144.202 246.392 145.091C243.369 145.981 240.197 146.242 237.07 145.859C233.943 145.475 230.927 144.455 228.207 142.861C222.663 139.614 218.661 134.125 216.275 128.145C214.923 124.657 213.97 121.026 213.437 117.322C212.902 113.854 213.356 110.35 214.324 106.978C214.369 106.852 214.388 106.718 214.378 106.584C214.369 106.451 214.331 106.32 214.268 106.202Z" fill="#2F2E41"/>
<path d="M245.253 237H174.579C174.481 237 174.386 236.961 174.316 236.891C174.247 236.821 174.207 236.726 174.207 236.627C174.207 236.528 174.247 236.433 174.316 236.363C174.386 236.293 174.481 236.254 174.579 236.254H245.253C245.352 236.254 245.446 236.293 245.516 236.363C245.586 236.433 245.625 236.528 245.625 236.627C245.625 236.726 245.586 236.821 245.516 236.891C245.446 236.961 245.352 237 245.253 237Z" fill="#CCCCCC"/>
</g>
<defs>
<clipPath id="clip0_812_9387">
<rect width="262" height="237" fill="white" transform="translate(0.25)"/>
</clipPath>
</defs>
</svg>
