<svg width="180" height="175" viewBox="0 0 180 175" fill="none" xmlns="http://www.w3.org/2000/svg">
<g opacity="0.8">
<path d="M114.271 39.3569H65.7692C64.664 39.3582 63.6043 39.7961 62.8228 40.5746C62.0412 41.353 61.6016 42.4084 61.6002 43.5092V150.875L61.0444 151.044L49.146 154.673C48.5821 154.844 47.973 154.786 47.4525 154.51C46.9319 154.234 46.5424 153.764 46.3695 153.203L10.9773 38.0586C10.8051 37.4969 10.8638 36.8902 11.1405 36.3716C11.4173 35.853 11.8894 35.4651 12.4532 35.2931L30.7885 29.7013L83.9434 13.4961L102.279 7.9043C102.558 7.81877 102.851 7.78888 103.141 7.81635C103.432 7.84381 103.714 7.9281 103.972 8.06437C104.23 8.20064 104.459 8.38623 104.644 8.61052C104.83 8.83481 104.97 9.09339 105.055 9.37146L114.102 38.8032L114.271 39.3569Z" fill="#EDF2F7"/>
<path d="M124.855 38.8037L113.952 3.33167C113.771 2.74064 113.474 2.191 113.079 1.71417C112.685 1.23733 112.199 0.84265 111.651 0.552667C111.103 0.262684 110.503 0.0830823 109.886 0.0241332C109.268 -0.0348158 108.645 0.0280425 108.052 0.20911L82.2732 8.0681L29.1212 24.2761L3.34286 32.1378C2.14534 32.5041 1.14263 33.3286 0.55484 34.4304C-0.0329515 35.5323 -0.157807 36.8214 0.207685 38.0148L37.4731 159.244C37.77 160.207 38.3691 161.05 39.1824 161.65C39.9958 162.249 40.9806 162.573 41.9923 162.574C42.4606 162.574 42.9262 162.504 43.3736 162.366L61.0446 156.979L61.6005 156.808V156.229L61.0446 156.398L43.2097 161.838C42.1526 162.158 41.0109 162.049 40.035 161.532C39.0591 161.016 38.3287 160.135 38.004 159.083L0.741432 37.8515C0.580533 37.3302 0.524456 36.7824 0.576409 36.2395C0.628362 35.6966 0.78732 35.1693 1.04419 34.6876C1.30106 34.206 1.6508 33.7796 2.07337 33.4328C2.49594 33.086 2.98305 32.8256 3.50679 32.6666L29.2852 24.8048L82.4373 8.59961L108.216 0.737846C108.613 0.617096 109.026 0.555528 109.441 0.555142C110.333 0.557136 111.2 0.843358 111.916 1.37189C112.632 1.90041 113.16 2.64347 113.421 3.49223L124.275 38.8037L124.447 39.3574H125.025L124.855 38.8037Z" fill="#A0AEC0"/>
<path d="M34.0972 35.3837C33.5615 35.3833 33.04 35.212 32.6093 34.8948C32.1785 34.5776 31.8612 34.1313 31.7038 33.6213L28.1239 21.9748C28.0277 21.662 27.9943 21.3333 28.0257 21.0077C28.057 20.682 28.1525 20.3656 28.3066 20.0767C28.4607 19.7877 28.6704 19.5318 28.9239 19.3237C29.1773 19.1155 29.4694 18.959 29.7835 18.8633L78.6829 3.95258C79.3172 3.75978 80.0025 3.82554 80.5882 4.13541C81.1739 4.44528 81.6123 4.97396 81.8071 5.6054L85.387 17.252C85.5804 17.8838 85.5143 18.5662 85.2032 19.1496C84.8921 19.7329 84.3614 20.1695 83.7275 20.3636L34.828 35.2744C34.5912 35.3467 34.3449 35.3836 34.0972 35.3837Z" fill="#CBD5E0"/>
<path d="M52.8501 12.4445C55.9201 12.4445 58.4088 9.96573 58.4088 6.90803C58.4088 3.85034 55.9201 1.37158 52.8501 1.37158C49.7801 1.37158 47.2914 3.85034 47.2914 6.90803C47.2914 9.96573 49.7801 12.4445 52.8501 12.4445Z" fill="#CBD5E0"/>
<path d="M52.8501 10.4139C54.7941 10.4139 56.37 8.84424 56.37 6.90801C56.37 4.97179 54.7941 3.40216 52.8501 3.40216C50.9061 3.40216 49.3302 4.97179 49.3302 6.90801C49.3302 8.84424 50.9061 10.4139 52.8501 10.4139Z" fill="white"/>
<path d="M167.493 161.159H73.5514C72.9251 161.158 72.3246 160.91 71.8817 160.469C71.4388 160.028 71.1897 159.43 71.189 158.806V46.6927C71.1897 46.0689 71.4388 45.4708 71.8817 45.0297C72.3246 44.5885 72.9251 44.3404 73.5514 44.3397H167.493C168.119 44.3404 168.72 44.5886 169.163 45.0297C169.606 45.4708 169.855 46.0689 169.855 46.6927V158.806C169.855 159.43 169.606 160.028 169.163 160.469C168.72 160.91 168.119 161.158 167.493 161.159Z" fill="#EDF2F7"/>
<path d="M124.274 38.8033H65.7692C64.5166 38.805 63.3159 39.3014 62.4302 40.1836C61.5445 41.0657 61.0461 42.2617 61.0443 43.5093V156.398L61.6002 156.229V43.5093C61.6016 42.4084 62.0412 41.353 62.8228 40.5746C63.6043 39.7962 64.6639 39.3583 65.7692 39.3569H124.447L124.274 38.8033ZM175.275 38.8033H65.7692C64.5166 38.805 63.3159 39.3014 62.4302 40.1836C61.5445 41.0657 61.0461 42.2617 61.0443 43.5093V170.294C61.0461 171.542 61.5445 172.738 62.4302 173.62C63.3159 174.502 64.5166 174.998 65.7692 175H175.275C176.528 174.998 177.728 174.502 178.614 173.62C179.5 172.738 179.998 171.542 180 170.294V43.5093C179.998 42.2617 179.5 41.0657 178.614 40.1836C177.728 39.3014 176.528 38.805 175.275 38.8033ZM179.444 170.294C179.443 171.395 179.003 172.45 178.222 173.229C177.44 174.007 176.38 174.445 175.275 174.446H65.7692C64.6639 174.445 63.6043 174.007 62.8228 173.229C62.0412 172.45 61.6016 171.395 61.6002 170.294V43.5093C61.6016 42.4084 62.0412 41.353 62.8228 40.5746C63.6043 39.7962 64.6639 39.3583 65.7692 39.3569H175.275C176.38 39.3583 177.44 39.7962 178.222 40.5746C179.003 41.353 179.443 42.4084 179.444 43.5093V170.294Z" fill="#A0AEC0"/>
<path d="M146.092 50.9835H94.9523C94.2891 50.9827 93.6533 50.72 93.1844 50.253C92.7154 49.7859 92.4517 49.1526 92.4509 48.4921V36.3119C92.4517 35.6514 92.7155 35.0181 93.1844 34.551C93.6533 34.084 94.2891 33.8212 94.9523 33.8205H146.092C146.755 33.8212 147.391 34.084 147.86 34.551C148.329 35.0181 148.593 35.6514 148.594 36.3119V48.4921C148.593 49.1526 148.329 49.7859 147.86 50.253C147.391 50.72 146.755 50.9827 146.092 50.9835Z" fill="#CBD5E0"/>
<path d="M120.522 34.6509C123.592 34.6509 126.081 32.1722 126.081 29.1145C126.081 26.0568 123.592 23.578 120.522 23.578C117.452 23.578 114.964 26.0568 114.964 29.1145C114.964 32.1722 117.452 34.6509 120.522 34.6509Z" fill="#CBD5E0"/>
<path d="M120.522 32.4867C122.392 32.4867 123.908 30.977 123.908 29.1145C123.908 27.2521 122.392 25.7423 120.522 25.7423C118.652 25.7423 117.136 27.2521 117.136 29.1145C117.136 30.977 118.652 32.4867 120.522 32.4867Z" fill="white"/>
</g>
</svg>
