<svg width="288" height="194" viewBox="0 0 288 194" fill="none" xmlns="http://www.w3.org/2000/svg">
<path d="M262.716 68.3486C262.416 68.5949 262.115 68.8305 261.807 69.0625H185.914C185.349 68.8305 184.786 68.5925 184.225 68.3486C176.213 64.8695 168.756 60.2368 162.091 54.5983C157.666 50.8573 153.595 46.995 150.643 43.3754C146.526 38.3243 142.733 32.8199 140.97 26.5481C139.21 20.2762 139.735 13.087 143.667 7.886C144.885 6.28611 146.381 4.91846 148.085 3.84873C148.368 3.67025 148.654 3.49891 148.947 3.33828C153.663 0.696741 159.612 0.0542017 164.921 1.42137C172.523 3.38111 178.841 8.85337 183.349 15.2716C187.857 21.6862 190.783 29.054 193.666 36.3396C196.593 23.3354 205.454 11.6877 217.425 5.76563C229.392 -0.156408 244.26 -0.0850142 255.973 6.32963C259.658 8.36019 262.987 10.9765 265.829 14.0758C266.111 14.3792 266.387 14.6897 266.659 15.0039C272.372 21.6041 275.946 30.057 276.239 38.7741C276.615 50.0042 271.399 61.2843 262.716 68.3486Z" fill="#F2F2F2"/>
<path d="M188.948 69.0625H187.874C187.86 68.8233 187.842 68.5877 187.821 68.3486C187.446 63.6793 186.66 59.052 185.474 54.5198C182.752 44.1728 178.102 34.4294 171.768 25.7984C165.452 17.1399 157.49 9.80648 148.336 4.21639C148.269 4.1781 148.211 4.12509 148.168 4.06139C148.125 3.99768 148.096 3.92495 148.085 3.84871C148.068 3.74903 148.079 3.64643 148.118 3.55288C148.156 3.45932 148.221 3.37867 148.304 3.3203C148.387 3.26194 148.484 3.22828 148.586 3.22324C148.687 3.2182 148.788 3.242 148.876 3.29185C148.901 3.30605 148.924 3.32154 148.947 3.33825C154.134 6.49258 158.949 10.2189 163.3 14.447C171.085 22.024 177.362 31.0026 181.8 40.9087C185.715 49.5847 188.113 58.8653 188.891 68.3486C188.912 68.5877 188.93 68.8269 188.948 69.0625Z" fill="white"/>
<path d="M266.659 15.0039C266.651 15.0079 266.642 15.0103 266.634 15.011C265.85 15.1538 265.063 15.3037 264.283 15.4643C257.881 16.7762 251.614 18.675 245.562 21.1365C239.526 23.5945 233.719 26.5809 228.211 30.0606C222.695 33.5385 217.494 37.4896 212.667 41.869C207.839 46.2421 203.41 51.0347 199.433 56.1904C196.461 60.0533 193.758 64.1156 191.345 68.3486C191.209 68.5842 191.076 68.8234 190.944 69.0625H189.717C189.846 68.8234 189.978 68.5842 190.114 68.3486C193.034 63.1619 196.382 58.227 200.124 53.5953C204.262 48.4692 208.848 43.7208 213.829 39.4059C218.779 35.1155 224.091 31.2602 229.706 27.8831C235.345 24.4925 241.273 21.6064 247.422 19.2589C253.389 16.9828 259.549 15.248 265.829 14.0758C266.004 14.0436 266.175 14.0115 266.351 13.9794C267.02 13.858 267.306 14.8646 266.659 15.0039Z" fill="white"/>
<path d="M71.6007 71.1846C73.5092 67.5898 73.8243 62.9076 71.4512 59.5997C70.0385 57.6306 67.8329 56.338 65.5185 55.6089C63.2042 54.8798 60.7627 54.6655 58.3423 54.4884C55.9463 54.313 53.5077 54.1726 51.1672 54.7133C48.8266 55.254 46.5595 56.575 45.4194 58.685C43.4932 62.2494 45.2478 66.82 43.8331 70.6155C42.5348 74.0987 38.8399 76.1351 35.2076 76.9569C31.5753 77.7787 27.7842 77.6912 24.1501 78.505C20.5161 79.3188 16.8149 81.3363 15.4936 84.8109C14.5382 87.3234 15.0129 90.2176 16.2719 92.5932C17.5309 94.9689 19.5027 96.8922 21.5957 98.5835C24.7181 101.107 28.3711 103.268 32.383 103.486C36.6103 103.717 40.7437 101.709 43.7863 98.7716C46.8289 95.8342 48.9003 92.0384 50.5552 88.1502C51.6051 85.6836 52.597 83.029 54.7009 81.3633C56.2469 80.1394 58.2133 79.6032 60.1202 79.096L62.2795 78.5217C64.2362 78.0109 66.0674 77.106 67.6605 75.8627C69.2537 74.6194 70.575 73.064 71.5432 71.2922C71.5625 71.2564 71.5816 71.2206 71.6007 71.1846Z" fill="#2F2E41"/>
<path d="M54.5715 189.438H50.1858L48.099 172.558H54.5725L54.5715 189.438Z" fill="#FFB8B8"/>
<path d="M47.0528 188.187H55.5114V193.501H41.727C41.727 192.804 41.8647 192.113 42.1324 191.468C42.4 190.823 42.7923 190.237 43.2868 189.744C43.7814 189.25 44.3685 188.859 45.0147 188.592C45.6608 188.325 46.3534 188.187 47.0528 188.187Z" fill="#2F2E41"/>
<path d="M91.0621 189.438H86.6765L84.5897 172.558H91.0632L91.0621 189.438Z" fill="#FFB8B8"/>
<path d="M83.5434 188.187H92.0021V193.501H78.2177C78.2177 192.804 78.3554 192.113 78.6231 191.468C78.8907 190.823 79.283 190.237 79.7775 189.744C80.2721 189.25 80.8592 188.859 81.5054 188.592C82.1515 188.325 82.8441 188.187 83.5434 188.187Z" fill="#2F2E41"/>
<path d="M63.0025 176.021C62.9413 176.021 62.8802 176.018 62.8194 176.012L44.9756 174.104C44.7386 174.079 44.5098 174.003 44.3043 173.883C44.0988 173.762 43.9214 173.599 43.7838 173.405C43.6463 173.211 43.5518 172.99 43.5067 172.756C43.4615 172.523 43.4667 172.282 43.522 172.051L59.3212 112.092C59.3952 111.787 59.5531 111.508 59.7773 111.288C60.0014 111.068 60.2827 110.914 60.5896 110.845L75.2459 106.768C75.5398 106.704 75.8456 106.719 76.1317 106.812C76.4178 106.905 76.6738 107.073 76.8732 107.297C86.2965 117.903 93.3979 141.413 98.7773 171.046C98.8179 171.27 98.8124 171.499 98.7612 171.721C98.7101 171.942 98.6143 172.151 98.4797 172.334C98.3451 172.517 98.1745 172.671 97.9783 172.787C97.7821 172.902 97.5644 172.977 97.3385 173.006L82.718 174.868C82.3033 174.922 81.8834 174.819 81.541 174.579C81.1987 174.34 80.9586 173.981 80.8681 173.573L73.7547 141.929C73.6893 141.638 73.5256 141.378 73.291 141.193C73.0564 141.008 72.7651 140.908 72.466 140.912C72.1669 140.915 71.878 141.021 71.6478 141.212C71.4176 141.402 71.2599 141.666 71.2012 141.959L64.6435 174.675C64.5693 175.054 64.3649 175.397 64.0655 175.642C63.766 175.888 63.3902 176.022 63.0025 176.021Z" fill="#2F2E41"/>
<path d="M60.2884 79.418C65.1412 79.418 69.0751 75.4927 69.0751 70.6506C69.0751 65.8085 65.1412 61.8832 60.2884 61.8832C55.4356 61.8832 51.5016 65.8085 51.5016 70.6506C51.5016 75.4927 55.4356 79.418 60.2884 79.418Z" fill="#FFB8B8"/>
<path d="M60.043 112.26C59.6736 112.26 59.3147 112.138 59.0221 111.913C58.7296 111.688 58.5198 111.372 58.4255 111.016L53.1394 91.2011C52.7579 89.7773 52.9159 88.2631 53.5832 86.9483C54.2505 85.6334 55.3803 84.6102 56.7563 84.0745C61.0114 82.4172 65.0654 81.8024 68.8055 82.2464C72.1297 82.6417 76.2305 102.279 75.9592 102.698L77.271 106.624C77.3454 106.847 77.372 107.083 77.3492 107.316C77.3263 107.55 77.2545 107.776 77.1384 107.98C77.0223 108.184 76.8645 108.362 76.6752 108.501C76.4859 108.64 76.2693 108.739 76.0395 108.789L60.4076 112.22C60.2879 112.247 60.1656 112.26 60.043 112.26Z" fill="#CCCCCC"/>
<path d="M64.7804 132.524C64.8557 132.134 64.8444 131.732 64.7473 131.347C64.6501 130.962 64.4696 130.603 64.2182 130.295C63.9669 129.987 63.651 129.738 63.2927 129.565C62.9344 129.392 62.5425 129.299 62.1445 129.294L59.099 120.13L55.9863 124.07L59.3555 132.168C59.3906 132.835 59.67 133.467 60.1407 133.943C60.6114 134.419 61.2407 134.706 61.9094 134.75C62.5781 134.794 63.2397 134.592 63.7688 134.181C64.298 133.771 64.6579 133.181 64.7804 132.524Z" fill="#FFB8B8"/>
<path d="M103.935 110.502C103.753 110.149 103.495 109.84 103.18 109.597C102.866 109.354 102.501 109.183 102.113 109.096C101.725 109.009 101.322 109.008 100.933 109.093C100.544 109.178 100.179 109.346 99.8624 109.588L91.793 104.261L91.7857 109.278L99.4496 113.567C99.8907 114.07 100.502 114.395 101.166 114.479C101.831 114.563 102.504 114.4 103.057 114.023C103.61 113.645 104.005 113.078 104.166 112.429C104.328 111.78 104.246 111.094 103.935 110.502H103.935Z" fill="#FFB8B8"/>
<path d="M58.3953 128.29C58.0424 128.29 57.6985 128.18 57.4124 127.973C57.1263 127.767 56.9127 127.476 56.8019 127.142L49.6623 112.072C49.3695 111.189 49.2204 110.265 49.2206 109.334L51.3671 89.7473C51.367 88.6507 51.7864 87.5953 52.5397 86.7967C53.293 85.9981 54.3233 85.5165 55.4204 85.4502C56.5175 85.3839 57.5985 85.7379 58.4429 86.4399C59.2873 87.1419 59.8313 88.1391 59.9639 89.2277L56.6798 111.585L61.9204 125.306C62.0034 125.672 61.961 126.054 61.8003 126.392C61.6395 126.73 61.3696 127.005 61.0338 127.172L59.1456 128.114C58.9126 128.23 58.6558 128.29 58.3953 128.29Z" fill="#CCCCCC"/>
<path d="M96.5259 112.481C96.263 112.481 96.0038 112.419 95.7692 112.301L81.5709 105.145C80.7385 104.725 79.9789 104.176 79.321 103.517L65.4628 89.6442C64.6869 88.8675 64.2374 87.8246 64.206 86.7285C64.1745 85.6323 64.5636 84.5655 65.2937 83.7458C66.0238 82.9261 67.0399 82.4154 68.1346 82.3179C69.2293 82.2203 70.32 82.5434 71.1841 83.221L86.1963 99.8565L98.0962 107.396C98.4132 107.596 98.6537 107.896 98.7791 108.249C98.9045 108.602 98.9075 108.986 98.7877 109.341L98.1169 111.338C98.005 111.671 97.7913 111.96 97.5058 112.165C97.2203 112.37 96.8775 112.48 96.5259 112.481L96.5259 112.481Z" fill="#CCCCCC"/>
<path d="M50.2938 66.1177C51.7864 68.066 53.9319 69.4131 56.3381 69.9127C58.777 70.4156 61.3153 70.0527 63.5146 68.8867C65.2843 67.9326 66.7004 66.5007 68.0874 65.091C68.6662 64.5026 69.2828 63.8241 69.2537 63.0215C69.2085 61.778 67.7103 61.0981 66.4243 60.8269C62.2033 59.9483 57.8113 60.4411 53.8913 62.2332C52.1455 63.0424 50.3265 64.5064 50.5887 66.3261" fill="#2F2E41"/>
<path d="M281.044 68.3486H108.607C106.995 68.3509 105.45 68.991 104.309 70.1285C103.169 71.2661 102.528 72.8083 102.526 74.417V140.812C102.528 142.421 103.169 143.963 104.309 145.101C105.45 146.238 106.995 146.878 108.607 146.881H281.044C282.656 146.878 284.202 146.238 285.342 145.101C286.482 143.963 287.123 142.421 287.126 140.812V74.417C287.123 72.8083 286.482 71.2661 285.342 70.1285C284.202 68.991 282.656 68.3509 281.044 68.3486ZM286.41 140.812C286.408 142.232 285.842 143.593 284.836 144.597C283.83 145.6 282.466 146.165 281.044 146.167H108.607C107.185 146.165 105.821 145.6 104.815 144.597C103.809 143.593 103.243 142.232 103.241 140.812V74.417C103.243 72.9974 103.809 71.6365 104.815 70.6327C105.821 69.6289 107.185 69.0643 108.607 69.0625H281.044C282.466 69.0643 283.83 69.6289 284.836 70.6327C285.842 71.6365 286.408 72.9974 286.41 74.417V140.812Z" fill="#3F3D56"/>
<path d="M139.916 128.319C135.812 128.319 131.8 127.104 128.388 124.829C124.975 122.554 122.316 119.321 120.745 115.538C119.175 111.755 118.764 107.592 119.565 103.576C120.365 99.5594 122.341 95.8703 125.243 92.9748C128.145 90.0793 131.842 88.1074 135.868 87.3086C139.893 86.5097 144.065 86.9197 147.856 88.4867C151.648 90.0538 154.888 92.7074 157.168 96.1122C159.448 99.5169 160.665 103.52 160.665 107.615C160.659 113.104 158.471 118.366 154.581 122.248C150.691 126.129 145.417 128.312 139.916 128.319ZM139.916 87.6247C135.953 87.6247 132.08 88.7971 128.785 90.9936C125.491 93.1901 122.923 96.3121 121.406 99.9648C119.89 103.618 119.493 107.637 120.266 111.515C121.039 115.392 122.947 118.954 125.749 121.75C128.551 124.545 132.121 126.449 136.007 127.221C139.893 127.992 143.922 127.596 147.582 126.083C151.243 124.57 154.372 122.008 156.573 118.721C158.775 115.433 159.95 111.568 159.95 107.615C159.944 102.315 157.831 97.2338 154.075 93.4862C150.319 89.7387 145.227 87.6307 139.916 87.6247Z" fill="#3F3D56"/>
<path d="M265.655 94.407H183.015C181.86 94.4076 180.75 94.8544 179.917 95.6536C179.085 96.4528 178.595 97.5424 178.55 98.6941C178.544 98.7522 178.542 98.8106 178.543 98.869C178.545 100.052 179.016 101.186 179.855 102.022C180.693 102.859 181.829 103.329 183.015 103.331H265.655C266.841 103.331 267.979 102.861 268.818 102.024C269.656 101.187 270.127 100.052 270.127 98.869C270.127 97.6856 269.656 96.5507 268.818 95.7139C267.979 94.8771 266.841 94.407 265.655 94.407Z" fill="#0BC5EA"/>
<path d="M265.655 111.898H183.015C181.86 111.899 180.75 112.346 179.917 113.145C179.085 113.944 178.595 115.034 178.55 116.185C178.544 116.243 178.542 116.302 178.543 116.36C178.545 117.543 179.016 118.677 179.855 119.514C180.693 120.35 181.829 120.821 183.015 120.822H265.655C266.841 120.822 267.979 120.352 268.818 119.515C269.656 118.679 270.127 117.544 270.127 116.36C270.127 115.177 269.656 114.042 268.818 113.205C267.979 112.368 266.841 111.898 265.655 111.898Z" fill="#0BC5EA"/>
<path d="M137.601 116.661C137.022 116.662 136.458 116.475 135.995 116.128L135.966 116.107L129.919 111.487C129.639 111.273 129.404 111.006 129.227 110.701C129.05 110.396 128.936 110.06 128.889 109.711C128.843 109.362 128.866 109.007 128.957 108.667C129.048 108.327 129.206 108.008 129.42 107.729C129.635 107.449 129.902 107.215 130.208 107.038C130.513 106.862 130.85 106.748 131.2 106.701C131.55 106.655 131.905 106.678 132.246 106.769C132.587 106.86 132.907 107.017 133.187 107.231L137.104 110.228L146.361 98.1826C146.575 97.9032 146.843 97.6687 147.148 97.4926C147.454 97.3165 147.791 97.2021 148.141 97.156C148.491 97.1099 148.846 97.1331 149.187 97.2241C149.528 97.3151 149.848 97.4722 150.128 97.6864L150.07 97.7644L150.129 97.6875C150.694 98.1207 151.063 98.7596 151.157 99.4643C151.25 100.169 151.059 100.882 150.626 101.446L139.738 115.615C139.486 115.941 139.163 116.205 138.792 116.387C138.421 116.568 138.014 116.662 137.601 116.661Z" fill="#0BC5EA"/>
<path d="M137.542 194H1.23818C1.1433 194 1.05231 193.962 0.985215 193.895C0.918123 193.828 0.880432 193.738 0.880432 193.643C0.880432 193.548 0.918123 193.458 0.985215 193.391C1.05231 193.324 1.1433 193.286 1.23818 193.286H137.542C137.637 193.286 137.728 193.324 137.795 193.391C137.862 193.458 137.899 193.548 137.899 193.643C137.899 193.738 137.862 193.828 137.795 193.895C137.728 193.962 137.637 194 137.542 194Z" fill="#3F3D56"/>
<path d="M245.317 52.2672C237.844 51.2415 230.254 51.4122 222.834 52.7729C215.436 54.1224 208.294 56.614 201.665 60.158C197.94 62.1554 194.404 64.4863 191.101 67.1221C190.561 67.5522 191.325 68.3055 191.86 67.8793C197.655 63.2794 204.152 59.6356 211.102 57.0863C217.998 54.5416 225.246 53.0744 232.59 52.7367C236.746 52.5462 240.911 52.7347 245.032 53.2998C245.169 53.3325 245.313 53.3122 245.436 53.2427C245.558 53.1733 245.65 53.06 245.692 52.9258C245.729 52.7889 245.71 52.643 245.64 52.5197C245.57 52.3964 245.454 52.3056 245.317 52.2672H245.317Z" fill="white"/>
</svg>
